<svg width="321" height="321" viewBox="0 0 321 321" fill="none" xmlns="http://www.w3.org/2000/svg">
<g clip-path="url(#clip0_3139_18)">
<rect width="320.775" height="320.775" fill="black"/>
<rect width="320.775" height="320.775" fill="url(#paint0_linear_3139_18)"/>
<rect width="320.775" height="320.775" fill="url(#paint1_linear_3139_18)"/>
<g filter="url(#filter0_d_3139_18)">
<path d="M200.778 292.042C201.554 292.819 201.943 293.855 201.943 295.149C201.943 298.515 200.26 300.198 196.894 300.198C193.528 300.198 191.845 298.515 191.845 295.149C191.845 293.855 192.234 292.819 193.01 292.042V35.334L127.765 104.851V292.042C128.542 292.819 128.93 293.855 128.93 295.149C128.93 298.515 127.248 300.198 123.882 300.198C120.516 300.198 118.833 298.515 118.833 295.149C118.833 293.855 119.221 292.819 119.998 292.042V29.1202C119.221 27.8256 118.833 26.6605 118.833 25.6249C118.833 22.2591 120.516 20.5762 123.882 20.5762C127.248 20.5762 128.93 22.2591 128.93 25.6249C128.93 26.6605 128.542 27.8256 127.765 29.1202V93.9769L193.01 24.4598H200.778V292.042Z" fill="white"/>
</g>
<circle cx="72.1255" cy="209.27" r="2" fill="white"/>
<circle cx="105.712" cy="277.23" r="2" fill="white"/>
<circle cx="19.7912" cy="300.73" r="2" transform="rotate(-55.8376 19.7912 300.73)" fill="white"/>
<circle cx="53.7917" cy="258.091" r="2" transform="rotate(-55.8376 53.7917 258.091)" fill="white"/>
<circle cx="164.04" cy="165.121" r="2" transform="rotate(-55.8376 164.04 165.121)" fill="white"/>
<circle cx="74.3307" cy="283.54" r="2" transform="rotate(-55.8376 74.3307 283.54)" fill="white"/>
<circle cx="172.712" cy="283.54" r="2" transform="rotate(-55.8376 172.712 283.54)" fill="white"/>
<circle cx="254.761" cy="238.357" r="2" fill="white"/>
<circle cx="290.943" cy="234.011" r="2" transform="rotate(-157.15 290.943 234.011)" fill="white"/>
<circle cx="68.1255" cy="85.5059" r="2" fill="white"/>
<circle cx="25.4731" cy="125.607" r="2" fill="white"/>
<circle cx="40.2378" cy="182.43" r="2" fill="white"/>
<circle cx="244.915" cy="164.301" r="2" fill="white"/>
<circle cx="178.268" cy="115.843" r="2" transform="rotate(-55.8376 178.268 115.843)" fill="white"/>
<circle cx="221.903" cy="188.404" r="2" transform="rotate(-157.15 221.903 188.404)" fill="white"/>
<circle cx="244.915" cy="41.0488" r="2" fill="white"/>
<circle cx="30.9731" cy="96.1641" r="2" fill="white"/>
<circle cx="149.856" cy="123.607" r="2" transform="rotate(-55.8376 149.856 123.607)" fill="white"/>
<circle cx="152.388" cy="217.27" r="2" fill="white"/>
<circle cx="108.533" cy="180.339" r="2" transform="rotate(-55.8376 108.533 180.339)" fill="white"/>
<circle cx="246.004" cy="85.5059" r="2" fill="white"/>
<circle cx="277.003" cy="122.828" r="2" fill="white"/>
<circle cx="166.818" cy="196.955" r="2" fill="white"/>
<circle cx="21.1387" cy="45.3825" r="2" transform="rotate(-100.618 21.1387 45.3825)" fill="white"/>
<circle cx="221.618" cy="68.4118" r="2" transform="rotate(-100.618 221.618 68.4118)" fill="white"/>
<circle cx="138.944" cy="163.966" r="2" transform="rotate(-100.618 138.944 163.966)" fill="white"/>
<circle cx="291.229" cy="159.896" r="2" transform="rotate(-100.618 291.229 159.896)" fill="white"/>
<circle cx="272.669" cy="177.562" r="2" transform="rotate(-100.618 272.669 177.562)" fill="white"/>
<circle cx="242.581" cy="208.867" r="2" transform="rotate(-100.618 242.581 208.867)" fill="white"/>
<circle cx="83.3848" cy="112.98" r="2" transform="rotate(-100.618 83.3848 112.98)" fill="white"/>
<circle cx="281.477" cy="68.4118" r="2" transform="rotate(-100.618 281.477 68.4118)" fill="white"/>
<circle cx="237.391" cy="117.023" r="2" transform="rotate(-100.618 237.391 117.023)" fill="white"/>
<circle cx="275.781" cy="36.7145" r="2" transform="rotate(-100.618 275.781 36.7145)" fill="white"/>
<circle cx="217.642" cy="288.697" r="2" transform="rotate(102.232 217.642 288.697)" fill="white"/>
<circle cx="181.044" cy="234.023" r="2" transform="rotate(-100.618 181.044 234.023)" fill="white"/>
<circle cx="87.3165" cy="155.228" r="2" transform="rotate(-100.618 87.3165 155.228)" fill="white"/>
<circle cx="222.355" cy="135.994" r="2" transform="rotate(-100.618 222.355 135.994)" fill="white"/>
<circle cx="35.6055" cy="146.661" r="2" transform="rotate(-156.456 35.6055 146.661)" fill="white"/>
<circle cx="76.7579" cy="228.393" r="2" transform="rotate(-156.456 76.7579 228.393)" fill="white"/>
<circle cx="55.5513" cy="49.3142" r="2" transform="rotate(-100.618 55.5513 49.3142)" fill="white"/>
<circle cx="248.383" cy="272.851" r="2" transform="rotate(102.232 248.383 272.851)" fill="white"/>
<circle cx="222.421" cy="235.978" r="2" transform="rotate(102.232 222.421 235.978)" fill="white"/>
<circle cx="286.793" cy="295.574" r="2" transform="rotate(102.232 286.793 295.574)" fill="white"/>
<circle cx="153.503" cy="252.978" r="2" transform="rotate(-100.618 153.503 252.978)" fill="white"/>
<circle cx="137.91" cy="50.35" r="2" transform="rotate(-156.456 137.91 50.35)" fill="white"/>
<circle cx="171.677" cy="91.5316" r="2" transform="rotate(-156.456 171.677 91.5316)" fill="white"/>
<circle cx="72.5284" cy="165.564" r="2" transform="rotate(-100.618 72.5284 165.564)" fill="white"/>
<circle cx="93.4986" cy="224.392" r="2" transform="rotate(-100.618 93.4986 224.392)" fill="white"/>
<circle cx="20.3228" cy="241.905" r="2" transform="rotate(-156.456 20.3228 241.905)" fill="white"/>
<circle cx="81.5059" cy="28.4567" r="2" transform="rotate(-100.618 81.5059 28.4567)" fill="white"/>
<circle cx="95.0958" cy="63.0075" r="2" transform="rotate(-100.618 95.0958 63.0075)" fill="white"/>
<circle cx="162.186" cy="31.0883" r="2" transform="rotate(-156.456 162.186 31.0883)" fill="white"/>
<path d="M291.453 234.213L255.262 238.738" stroke="white"/>
<path d="M30.9375 96.3159L83.3594 112.871M95.4181 63.3105L83.3594 112.871L35.8423 146.593M83.3594 112.871L67.7722 85.9306" stroke="white"/>
<path d="M246.214 41.1953L222.087 68.3379L246.214 85.931L277.379 122.625L245.711 164.345L222.589 136.196" stroke="white"/>
<path d="M178.356 116.09L150.71 123.127L138.647 163.34L108.487 180.43L87.376 155.297" stroke="white"/>
<path d="M72.7988 209.082L76.3174 228.686L93.4075 224.161" stroke="white"/>
<path d="M105.471 277.946L153.223 253.315M153.223 253.315L152.218 217.627L166.795 197.018L181.372 234.716L153.223 253.315Z" stroke="white"/>
</g>
<defs>
<filter id="filter0_d_3139_18" x="18.433" y="-79.8238" width="283.91" height="480.421" filterUnits="userSpaceOnUse" color-interpolation-filters="sRGB">
<feFlood flood-opacity="0" result="BackgroundImageFix"/>
<feColorMatrix in="SourceAlpha" type="matrix" values="0 0 0 0 0 0 0 0 0 0 0 0 0 0 0 0 0 0 127 0" result="hardAlpha"/>
<feOffset/>
<feGaussianBlur stdDeviation="50.2"/>
<feComposite in2="hardAlpha" operator="out"/>
<feColorMatrix type="matrix" values="0 0 0 0 1 0 0 0 0 1 0 0 0 0 1 0 0 0 1 0"/>
<feBlend mode="normal" in2="BackgroundImageFix" result="effect1_dropShadow_3139_18"/>
<feBlend mode="normal" in="SourceGraphic" in2="effect1_dropShadow_3139_18" result="shape"/>
</filter>
<linearGradient id="paint0_linear_3139_18" x1="160.388" y1="160.388" x2="949.288" y2="836.61" gradientUnits="userSpaceOnUse">
<stop stop-color="#FF4D4D" stop-opacity="0"/>
<stop offset="1" stop-color="#FF4D4D"/>
</linearGradient>
<linearGradient id="paint1_linear_3139_18" x1="-358.599" y1="-271.461" x2="110.06" y2="120.905" gradientUnits="userSpaceOnUse">
<stop stop-color="#63ACFF"/>
<stop offset="1" stop-color="#63ACFF" stop-opacity="0"/>
</linearGradient>
<clipPath id="clip0_3139_18">
<rect width="320.775" height="320.775" rx="38" fill="white"/>
</clipPath>
</defs>
</svg>
